{
	"asset":{
		"generator":"Khronos glTF Blender I/O v3.5.30",
		"version":"2.0"
	},
	"scene":0,
	"scenes":[
		{
			"name":"Scene",
			"nodes":[
				0
			]
		}
	],
	"nodes":[
		{
			"mesh":0,
			"name":"Cube"
		}
	],
	"materials":[
		{
			"alphaCutoff":0,
			"alphaMode":"MASK",
			"doubleSided":true,
			"emissiveFactor":[
				1,
				1,
				1
			],
			"emissiveTexture":{
				"index":0
			},
			"name":"tileset2new",
			"pbrMetallicRoughness":{
				"baseColorFactor":[
					0,
					0,
					0,
					1
				]
			}
		}
	],
	"meshes":[
		{
			"name":"Cube",
			"primitives":[
				{
					"attributes":{
						"POSITION":0,
						"TEXCOORD_0":1,
						"NORMAL":2
					},
					"indices":3,
					"material":0
				}
			]
		}
	],
	"textures":[
		{
			"sampler":0,
			"source":0
		}
	],
	"images":[
		{
			"bufferView":4,
			"mimeType":"image/png",
			"name":"tileset2new"
		}
	],
	"accessors":[
		{
			"bufferView":0,
			"componentType":5126,
			"count":1160,
			"max":[
				0,
				6.838068008422852,
				1
			],
			"min":[
				-10,
				0,
				-10
			],
			"type":"VEC3"
		},
		{
			"bufferView":1,
			"componentType":5126,
			"count":1160,
			"type":"VEC2"
		},
		{
			"bufferView":2,
			"componentType":5126,
			"count":1160,
			"type":"VEC3"
		},
		{
			"bufferView":3,
			"componentType":5123,
			"count":1770,
			"type":"SCALAR"
		}
	],
	"bufferViews":[
		{
			"buffer":0,
			"byteLength":13920,
			"byteOffset":0,
			"target":34962
		},
		{
			"buffer":0,
			"byteLength":9280,
			"byteOffset":13920,
			"target":34962
		},
		{
			"buffer":0,
			"byteLength":13920,
			"byteOffset":23200,
			"target":34962
		},
		{
			"buffer":0,
			"byteLength":3540,
			"byteOffset":37120,
			"target":34963
		},
		{
			"buffer":0,
			"byteLength":8469,
			"byteOffset":40660
		}
	],
	"samplers":[
		{
			"magFilter":9728,
			"minFilter":9984
		}
	],
	"buffers":[
		{
			"byteLength":49132,
			"uri":"data:application/octet-stream;base64,"
		}
	]
}
